{"glyphs":{"0":{"ha":894,"x_min":0,"x_max":0,"o":"m 447 -19 b 69 358 218 -19 69 125 l 69 614 b 447 992 69 847 218 992 b 825 614 676 992 825 847 l 825 358 b 447 -19 825 125 676 -19 m 594 629 b 447 792 594 721 547 792 b 300 629 347 792 300 721 l 300 343 b 447 181 300 251 347 181 b 594 343 547 181 594 251 "},"1":{"ha":588,"x_min":0,"x_max":0,"o":"m 478 979 l 483 979 l 483 0 l 253 0 l 253 715 l 28 663 l 28 871 "},"2":{"ha":810,"x_min":0,"x_max":0,"o":"m 71 651 b 415 992 76 876 201 992 b 747 685 619 992 747 857 b 639 431 747 574 699 504 l 451 200 l 747 200 l 747 0 l 35 0 l 35 11 l 464 561 b 519 685 499 606 519 639 b 414 792 519 744 482 792 b 294 651 324 792 297 732 "},"3":{"ha":846,"x_min":0,"x_max":0,"o":"m 379 772 l 81 772 l 81 972 l 744 972 l 744 961 l 521 597 b 776 313 674 583 776 482 b 418 -19 776 110 606 -19 b 60 290 213 -19 79 106 l 281 290 b 417 175 292 224 331 175 b 549 299 492 175 549 224 b 404 418 549 372 499 418 l 176 418 l 176 433 "},"4":{"ha":874,"x_min":0,"x_max":0,"o":"m 493 203 l 17 203 l 17 213 l 297 972 l 517 972 l 315 393 l 493 393 l 493 594 l 710 594 l 710 393 l 829 393 l 829 203 l 710 203 l 710 0 l 493 0 "},"5":{"ha":835,"x_min":0,"x_max":0,"o":"m 428 626 b 772 313 625 626 772 522 b 424 -19 772 117 613 -19 b 69 275 211 -19 92 114 l 292 275 b 419 179 307 221 347 179 b 546 303 499 179 546 235 b 394 426 546 382 490 426 l 89 426 l 182 972 l 686 972 l 686 771 l 368 771 l 349 626 "},"6":{"ha":833,"x_min":0,"x_max":0,"o":"m 417 -19 b 49 322 183 -19 49 129 b 92 515 49 393 61 458 l 336 972 l 579 972 l 385 615 b 486 651 408 642 453 651 b 788 322 657 651 788 522 b 417 -19 788 129 639 -19 m 560 315 b 419 457 560 389 511 457 b 276 315 326 457 276 390 b 415 172 276 232 329 172 b 560 315 501 172 560 231 "},"7":{"ha":746,"x_min":0,"x_max":0,"o":"m 38 972 l 746 972 l 746 964 l 350 0 l 108 0 l 431 769 l 38 769 "},"8":{"ha":864,"x_min":0,"x_max":0,"o":"m 432 -19 b 69 275 224 -19 69 99 b 232 510 69 414 154 478 b 108 719 164 551 108 617 b 432 992 108 896 256 992 b 756 719 608 992 756 896 b 632 510 756 617 700 551 b 794 275 710 485 794 414 b 432 -19 794 99 640 -19 m 432 160 b 565 283 506 160 565 206 b 432 407 565 361 510 407 b 299 283 354 407 299 361 b 432 160 299 206 358 160 m 432 586 b 538 703 501 586 538 642 b 432 813 538 772 497 813 b 326 703 367 813 326 772 b 432 586 326 642 363 586 "},"9":{"ha":833,"x_min":0,"x_max":0,"o":"m 417 992 b 785 650 650 992 785 843 b 742 457 785 579 772 514 l 497 0 l 254 0 l 449 357 b 347 321 425 331 381 321 b 46 650 176 321 46 450 b 417 992 46 843 194 992 m 274 657 b 414 515 274 583 322 515 b 557 657 507 515 557 582 b 418 800 557 740 504 800 b 274 657 332 800 274 742 "}," ":{"ha":333,"x_min":0,"x_max":0,"o":""}," ":{"ha":333,"x_min":0,"x_max":0,"o":""},"A":{"ha":1075,"x_min":0,"x_max":0,"o":"m 739 138 l 335 138 l 286 0 l 31 0 l 449 972 l 626 972 l 1044 0 l 789 0 m 404 331 l 669 331 l 538 697 "},"À":{"ha":1075,"x_min":0,"x_max":0,"o":"m 739 138 l 335 138 l 286 0 l 31 0 l 449 972 l 626 972 l 1044 0 l 789 0 m 404 331 l 669 331 l 538 697 m 425 1036 l 264 1225 l 567 1225 l 653 1036 "},"Á":{"ha":1075,"x_min":0,"x_max":0,"o":"m 739 138 l 335 138 l 286 0 l 31 0 l 449 972 l 626 972 l 1044 0 l 789 0 m 404 331 l 669 331 l 538 697 m 419 1036 l 506 1225 l 808 1225 l 647 1036 "},"Â":{"ha":1075,"x_min":0,"x_max":0,"o":"m 739 138 l 335 138 l 286 0 l 31 0 l 449 972 l 626 972 l 1044 0 l 789 0 m 404 331 l 669 331 l 538 697 m 810 1036 l 593 1036 l 538 1101 l 482 1036 l 265 1036 l 453 1225 l 622 1225 "},"Ã":{"ha":1075,"x_min":0,"x_max":0,"o":"m 739 138 l 335 138 l 286 0 l 31 0 l 449 972 l 626 972 l 1044 0 l 789 0 m 404 331 l 669 331 l 538 697 m 682 1036 b 454 1082 600 1036 533 1082 b 401 1028 421 1082 410 1064 l 225 1063 b 389 1258 240 1183 281 1258 b 608 1213 481 1258 563 1213 b 663 1267 643 1213 654 1236 l 838 1226 b 682 1036 825 1118 792 1036 "},"Ä":{"ha":1075,"x_min":0,"x_max":0,"o":"m 739 138 l 335 138 l 286 0 l 31 0 l 449 972 l 626 972 l 1044 0 l 789 0 m 404 331 l 669 331 l 538 697 m 257 1149 b 376 1261 257 1211 308 1261 b 496 1149 444 1261 496 1211 b 376 1036 496 1086 444 1036 b 257 1149 308 1036 257 1086 m 579 1149 b 699 1261 579 1211 631 1261 b 818 1149 767 1261 818 1211 b 699 1036 818 1086 767 1036 b 579 1149 631 1036 579 1086 "},"Å":{"ha":1075,"x_min":0,"x_max":0,"o":"m 690 1029 b 644 928 690 990 675 954 l 1044 0 l 789 0 l 739 138 l 335 138 l 286 0 l 31 0 l 429 928 b 383 1029 400 954 383 990 b 538 1167 383 1100 439 1167 b 690 1029 636 1167 690 1100 m 404 331 l 669 331 l 538 697 m 479 1029 b 538 972 479 996 500 972 b 597 1029 575 972 597 996 b 538 1086 597 1063 575 1086 b 479 1029 500 1086 479 1063 "},"B":{"ha":953,"x_min":0,"x_max":0,"o":"m 911 272 b 579 0 911 122 775 0 l 97 0 l 97 972 l 560 972 b 832 725 703 972 832 874 b 690 515 832 633 779 553 b 911 272 829 489 911 411 m 675 297 b 543 404 675 363 619 404 l 331 404 l 331 188 l 550 188 b 675 297 624 188 675 236 m 492 589 b 601 690 561 589 601 631 b 485 785 601 744 556 785 l 331 785 l 331 589 "},"":{"ha":953,"x_min":0,"x_max":0,"o":"m 911 272 b 690 515 911 411 829 489 b 832 725 779 553 832 633 b 560 972 832 874 703 972 l 97 972 l 97 0 l 579 0 b 911 272 775 0 911 122 m 675 297 b 550 188 675 236 624 188 l 331 188 l 331 404 l 543 404 b 675 297 619 404 675 363 m 331 589 l 331 785 l 485 785 b 601 690 556 785 601 744 b 492 589 601 631 561 589 "},"C":{"ha":1119,"x_min":0,"x_max":0,"o":"m 829 626 b 574 786 792 717 707 786 b 292 486 388 786 292 651 b 574 186 292 321 388 186 b 829 346 707 186 792 256 l 1064 346 b 575 -19 1018 151 838 -19 b 56 486 253 -19 56 211 b 575 992 56 761 253 992 b 1064 626 838 992 1018 821 "},"Ç":{"ha":1119,"x_min":0,"x_max":0,"o":"m 701 -178 b 540 -306 701 -256 635 -306 b 439 -292 507 -306 467 -301 l 439 -196 b 510 -206 456 -200 481 -206 b 556 -175 539 -206 556 -197 b 518 -143 556 -157 544 -146 l 453 -137 l 492 -14 b 56 486 219 22 56 235 b 575 992 56 761 253 992 b 1064 626 838 992 1018 821 l 829 626 b 574 786 792 717 707 786 b 292 486 388 786 292 651 b 574 186 292 321 388 186 b 829 346 707 186 792 256 l 1064 346 b 590 -19 1018 154 844 -12 l 578 -61 l 590 -62 b 701 -178 661 -71 701 -107 "},"D":{"ha":1054,"x_min":0,"x_max":0,"o":"m 404 972 b 999 486 793 972 999 763 b 404 0 999 210 793 0 l 97 0 l 97 972 m 382 199 b 763 486 625 199 763 296 b 382 774 763 676 625 774 l 333 774 l 333 199 "},"E":{"ha":844,"x_min":0,"x_max":0,"o":"m 782 206 l 782 0 l 97 0 l 97 972 l 776 972 l 776 767 l 333 767 l 333 596 l 764 596 l 764 390 l 333 390 l 333 206 "},"":{"ha":844,"x_min":0,"x_max":0,"o":"m 333 206 l 333 390 l 764 390 l 764 596 l 333 596 l 333 767 l 776 767 l 776 972 l 97 972 l 97 0 l 782 0 l 782 206 "},"È":{"ha":844,"x_min":0,"x_max":0,"o":"m 782 206 l 782 0 l 97 0 l 97 972 l 776 972 l 776 767 l 333 767 l 333 596 l 764 596 l 764 390 l 333 390 l 333 206 m 356 1036 l 194 1225 l 497 1225 l 583 1036 "},"É":{"ha":844,"x_min":0,"x_max":0,"o":"m 782 206 l 782 0 l 97 0 l 97 972 l 776 972 l 776 767 l 333 767 l 333 596 l 764 596 l 764 390 l 333 390 l 333 206 m 308 1036 l 394 1225 l 697 1225 l 536 1036 "},"Ê":{"ha":844,"x_min":0,"x_max":0,"o":"m 782 206 l 782 0 l 97 0 l 97 972 l 776 972 l 776 767 l 333 767 l 333 596 l 764 596 l 764 390 l 333 390 l 333 206 m 711 1036 l 494 1036 l 439 1101 l 383 1036 l 167 1036 l 354 1225 l 524 1225 "},"Ë":{"ha":844,"x_min":0,"x_max":0,"o":"m 782 206 l 782 0 l 97 0 l 97 972 l 776 972 l 776 767 l 333 767 l 333 596 l 764 596 l 764 390 l 333 390 l 333 206 m 167 1149 b 286 1261 167 1211 218 1261 b 406 1149 354 1261 406 1211 b 286 1036 406 1086 354 1036 b 167 1149 218 1036 167 1086 m 489 1149 b 608 1261 489 1211 540 1261 b 728 1149 676 1261 728 1211 b 608 1036 728 1086 676 1036 b 489 1149 540 1036 489 1086 "},"F":{"ha":800,"x_min":0,"x_max":0,"o":"m 97 0 l 97 972 l 758 972 l 758 767 l 333 767 l 333 579 l 746 579 l 746 374 l 333 374 l 333 0 "},"G":{"ha":1142,"x_min":0,"x_max":0,"o":"m 524 518 l 1086 518 l 1086 499 b 578 -19 1086 199 883 -19 b 56 486 254 -19 56 211 b 578 992 56 767 257 992 b 1064 636 824 992 1001 854 l 831 636 b 579 789 789 719 711 789 b 292 486 400 789 292 663 b 576 176 292 292 401 176 b 828 325 704 176 792 240 l 524 325 "},"H":{"ha":1071,"x_min":0,"x_max":0,"o":"m 738 972 l 974 972 l 974 0 l 738 0 l 738 379 l 333 379 l 333 0 l 97 0 l 97 972 l 333 972 l 333 596 l 738 596 "},"I":{"ha":444,"x_min":0,"x_max":0,"o":"m 104 0 l 104 972 l 340 972 l 340 0 "},"Ì":{"ha":444,"x_min":0,"x_max":0,"o":"m 104 0 l 104 972 l 340 972 l 340 0 m 108 1036 l -53 1225 l 250 1225 l 336 1036 "},"Í":{"ha":444,"x_min":0,"x_max":0,"o":"m 104 0 l 104 972 l 340 972 l 340 0 m 111 1036 l 197 1225 l 500 1225 l 339 1036 "},"Î":{"ha":444,"x_min":0,"x_max":0,"o":"m 104 0 l 104 972 l 340 972 l 340 0 m 494 1036 l 278 1036 l 222 1101 l 167 1036 l -50 1036 l 138 1225 l 307 1225 "},"Ï":{"ha":444,"x_min":0,"x_max":0,"o":"m 104 0 l 104 972 l 340 972 l 340 0 m -58 1149 b 61 1261 -58 1211 -7 1261 b 181 1149 129 1261 181 1211 b 61 1036 181 1086 129 1036 b -58 1149 -7 1036 -58 1086 m 264 1149 b 383 1261 264 1211 315 1261 b 503 1149 451 1261 503 1211 b 383 1036 503 1086 451 1036 b 264 1149 315 1036 264 1086 "},"J":{"ha":881,"x_min":0,"x_max":0,"o":"m 94 972 l 786 972 l 786 318 b 426 -19 786 143 650 -19 b 65 332 190 -19 75 129 l 288 332 b 421 183 292 256 326 183 b 550 318 500 183 550 235 l 550 769 l 94 769 "},"K":{"ha":993,"x_min":0,"x_max":0,"o":"m 333 515 l 665 972 l 933 972 l 593 500 l 951 0 l 675 0 l 333 483 l 333 0 l 97 0 l 97 972 l 333 972 "},"L":{"ha":796,"x_min":0,"x_max":0,"o":"m 333 206 l 747 206 l 747 0 l 97 0 l 97 972 l 333 972 "},"M":{"ha":1281,"x_min":0,"x_max":0,"o":"m 640 344 l 1025 972 l 1183 972 l 1183 0 l 956 0 l 956 471 l 640 -14 l 325 471 l 325 0 l 97 0 l 97 972 l 256 972 "},"N":{"ha":1133,"x_min":0,"x_max":0,"o":"m 800 972 l 1036 972 l 1036 0 l 828 0 l 333 578 l 333 0 l 97 0 l 97 972 l 306 972 l 800 393 "},"Ñ":{"ha":1133,"x_min":0,"x_max":0,"o":"m 800 972 l 1036 972 l 1036 0 l 828 0 l 333 578 l 333 0 l 97 0 l 97 972 l 306 972 l 800 393 m 711 1036 b 483 1082 629 1036 563 1082 b 431 1028 450 1082 439 1064 l 254 1063 b 418 1258 269 1183 310 1258 b 638 1213 510 1258 592 1213 b 692 1267 672 1213 683 1236 l 867 1226 b 711 1036 854 1118 821 1036 "},"O":{"ha":1146,"x_min":0,"x_max":0,"o":"m 572 992 b 1090 486 890 992 1090 765 b 572 -19 1090 207 890 -19 b 56 486 254 -19 56 207 b 572 992 56 765 254 992 m 572 183 b 854 486 758 183 854 332 b 572 789 854 642 758 789 b 292 486 386 789 292 642 b 572 183 292 332 386 183 "},"Ò":{"ha":1146,"x_min":0,"x_max":0,"o":"m 572 992 b 1090 486 890 992 1090 765 b 572 -19 1090 207 890 -19 b 56 486 254 -19 56 207 b 572 992 56 765 254 992 m 572 183 b 854 486 758 183 854 332 b 572 789 854 642 758 789 b 292 486 386 789 292 642 b 572 183 292 332 386 183 m 458 1036 l 297 1225 l 600 1225 l 686 1036 "},"Ó":{"ha":1146,"x_min":0,"x_max":0,"o":"m 572 992 b 1090 486 890 992 1090 765 b 572 -19 1090 207 890 -19 b 56 486 254 -19 56 207 b 572 992 56 765 254 992 m 572 183 b 854 486 758 183 854 332 b 572 789 854 642 758 789 b 292 486 386 789 292 642 b 572 183 292 332 386 183 m 460 1036 l 546 1225 l 849 1225 l 688 1036 "},"Ô":{"ha":1146,"x_min":0,"x_max":0,"o":"m 572 992 b 1090 486 890 992 1090 765 b 572 -19 1090 207 890 -19 b 56 486 254 -19 56 207 b 572 992 56 765 254 992 m 572 183 b 854 486 758 183 854 332 b 572 789 854 642 758 789 b 292 486 386 789 292 642 b 572 183 292 332 386 183 m 844 1036 l 628 1036 l 572 1101 l 517 1036 l 300 1036 l 488 1225 l 657 1225 "},"Õ":{"ha":1146,"x_min":0,"x_max":0,"o":"m 572 992 b 1090 486 890 992 1090 765 b 572 -19 1090 207 890 -19 b 56 486 254 -19 56 207 b 572 992 56 765 254 992 m 572 183 b 854 486 758 183 854 332 b 572 789 854 642 758 789 b 292 486 386 789 292 642 b 572 183 292 332 386 183 m 731 1036 b 503 1082 649 1036 582 1082 b 450 1028 469 1082 458 1064 l 274 1063 b 438 1258 289 1183 329 1258 b 657 1213 529 1258 611 1213 b 711 1267 692 1213 703 1236 l 886 1226 b 731 1036 874 1118 840 1036 "},"Ö":{"ha":1146,"x_min":0,"x_max":0,"o":"m 572 992 b 1090 486 890 992 1090 765 b 572 -19 1090 207 890 -19 b 56 486 254 -19 56 207 b 572 992 56 765 254 992 m 572 183 b 854 486 758 183 854 332 b 572 789 854 642 758 789 b 292 486 386 789 292 642 b 572 183 292 332 386 183 m 292 1149 b 411 1261 292 1211 343 1261 b 531 1149 479 1261 531 1211 b 411 1036 531 1086 479 1036 b 292 1149 343 1036 292 1086 m 614 1149 b 733 1261 614 1211 665 1261 b 853 1149 801 1261 853 1211 b 733 1036 853 1086 801 1036 b 614 1149 665 1036 614 1086 "},"P":{"ha":947,"x_min":0,"x_max":0,"o":"m 333 251 l 333 0 l 97 0 l 97 972 l 554 972 b 913 611 760 972 913 814 b 554 251 913 408 760 251 m 521 454 b 676 611 608 454 676 517 b 521 769 676 706 608 769 l 333 769 l 333 454 "},"Q":{"ha":1146,"x_min":0,"x_max":0,"o":"m 572 992 b 1090 486 890 992 1090 765 b 928 107 1090 335 1032 199 l 1057 -75 l 801 -75 l 743 4 b 572 -19 703 -10 633 -19 b 56 486 254 -19 56 207 b 572 992 56 765 254 992 m 572 183 b 614 186 586 183 604 185 l 482 371 l 740 371 l 796 293 b 854 486 835 347 854 415 b 572 789 854 642 758 789 b 292 486 386 789 292 642 b 572 183 292 332 386 183 "},"R":{"ha":1013,"x_min":0,"x_max":0,"o":"m 431 257 l 333 257 l 333 0 l 97 0 l 97 972 l 571 972 b 929 614 776 972 929 817 b 718 286 929 463 844 340 l 982 0 l 664 0 m 538 460 b 693 614 625 460 693 519 b 538 769 693 708 625 769 l 333 769 l 333 460 "},"S":{"ha":824,"x_min":0,"x_max":0,"o":"m 775 299 b 414 -19 775 97 590 -19 b 56 299 197 -19 72 108 l 281 299 b 419 172 289 228 328 172 b 543 279 492 172 543 221 b 449 383 543 332 511 367 l 319 418 b 71 689 174 457 71 536 b 410 992 71 883 219 992 b 733 685 604 992 728 854 l 518 685 b 408 800 515 746 479 800 b 303 713 340 800 303 764 b 404 619 303 658 343 636 l 529 585 b 775 299 683 542 775 461 "},"":{"ha":824,"x_min":0,"x_max":0,"o":"m 775 299 b 529 585 775 461 683 542 l 404 619 b 303 713 343 636 303 658 b 408 800 303 764 340 800 b 518 685 479 800 515 746 l 733 685 b 410 992 728 854 604 992 b 71 689 219 992 71 883 b 319 418 71 536 174 457 l 449 383 b 543 279 511 367 543 332 b 419 172 543 221 492 172 b 281 299 328 172 289 228 l 56 299 b 414 -19 72 108 197 -19 b 775 299 590 -19 775 97 "},"T":{"ha":875,"x_min":0,"x_max":0,"o":"m 46 972 l 829 972 l 829 767 l 556 767 l 556 0 l 319 0 l 319 767 l 46 767 "},"U":{"ha":1050,"x_min":0,"x_max":0,"o":"m 525 -19 b 92 396 274 -19 92 139 l 92 972 l 328 972 l 328 393 b 525 186 328 251 410 186 b 722 393 640 186 722 251 l 722 972 l 958 972 l 958 396 b 525 -19 958 139 776 -19 "},"Ù":{"ha":1050,"x_min":0,"x_max":0,"o":"m 525 -19 b 92 396 274 -19 92 139 l 92 972 l 328 972 l 328 393 b 525 186 328 251 410 186 b 722 393 640 186 722 251 l 722 972 l 958 972 l 958 396 b 525 -19 958 139 776 -19 m 435 1036 l 274 1225 l 576 1225 l 663 1036 "},"Ú":{"ha":1050,"x_min":0,"x_max":0,"o":"m 525 -19 b 92 396 274 -19 92 139 l 92 972 l 328 972 l 328 393 b 525 186 328 251 410 186 b 722 393 640 186 722 251 l 722 972 l 958 972 l 958 396 b 525 -19 958 139 776 -19 m 397 1036 l 483 1225 l 786 1225 l 625 1036 "},"Û":{"ha":1050,"x_min":0,"x_max":0,"o":"m 525 -19 b 92 396 274 -19 92 139 l 92 972 l 328 972 l 328 393 b 525 186 328 251 410 186 b 722 393 640 186 722 251 l 722 972 l 958 972 l 958 396 b 525 -19 958 139 776 -19 m 797 1036 l 581 1036 l 525 1101 l 469 1036 l 253 1036 l 440 1225 l 610 1225 "},"Ü":{"ha":1050,"x_min":0,"x_max":0,"o":"m 525 -19 b 92 396 274 -19 92 139 l 92 972 l 328 972 l 328 393 b 525 186 328 251 410 186 b 722 393 640 186 722 251 l 722 972 l 958 972 l 958 396 b 525 -19 958 139 776 -19 m 244 1149 b 364 1261 244 1211 296 1261 b 483 1149 432 1261 483 1211 b 364 1036 483 1086 432 1036 b 244 1149 296 1036 244 1086 m 567 1149 b 686 1261 567 1211 618 1261 b 806 1149 754 1261 806 1211 b 686 1036 806 1086 754 1036 b 567 1149 618 1036 567 1086 "},"V":{"ha":978,"x_min":0,"x_max":0,"o":"m 574 0 l 404 0 l 7 972 l 261 972 l 489 356 l 717 972 l 971 972 "},"W":{"ha":1442,"x_min":0,"x_max":0,"o":"m 1022 389 l 1185 972 l 1426 972 l 1115 0 l 944 0 l 721 638 l 497 0 l 326 0 l 15 972 l 257 972 l 419 389 l 633 972 l 808 972 "},"X":{"ha":972,"x_min":0,"x_max":0,"o":"m 486 649 l 671 972 l 932 972 l 636 493 l 944 0 l 685 0 l 486 328 l 288 0 l 28 0 l 336 493 l 40 972 l 301 972 "},"Y":{"ha":931,"x_min":0,"x_max":0,"o":"m 583 350 l 583 0 l 347 0 l 347 350 l 11 972 l 264 972 l 465 569 l 667 972 l 919 972 "},"Ý":{"ha":931,"x_min":0,"x_max":0,"o":"m 583 350 l 583 0 l 347 0 l 347 350 l 11 972 l 264 972 l 465 569 l 667 972 l 919 972 m 346 1036 l 432 1225 l 735 1225 l 574 1036 "},"Ÿ":{"ha":931,"x_min":0,"x_max":0,"o":"m 583 350 l 583 0 l 347 0 l 347 350 l 11 972 l 264 972 l 465 569 l 667 972 l 919 972 m 185 1149 b 304 1261 185 1211 236 1261 b 424 1149 372 1261 424 1211 b 304 1036 424 1086 372 1036 b 185 1149 236 1036 185 1086 m 507 1149 b 626 1261 507 1211 558 1261 b 746 1149 694 1261 746 1211 b 626 1036 746 1086 694 1036 b 507 1149 558 1036 507 1086 "},"Z":{"ha":882,"x_min":0,"x_max":0,"o":"m 89 972 l 826 972 l 826 961 l 424 203 l 824 203 l 824 0 l 63 0 l 63 11 l 463 769 l 89 769 "},"Æ":{"ha":1508,"x_min":0,"x_max":0,"o":"m 1446 206 l 1446 0 l 761 0 l 761 160 l 376 160 l 261 0 l 0 0 l 732 972 l 1440 972 l 1440 767 l 997 767 l 997 596 l 1428 596 l 1428 390 l 997 390 l 997 206 m 508 343 l 761 343 l 761 694 "},"Ð":{"ha":1107,"x_min":0,"x_max":0,"o":"m 35 589 l 150 589 l 150 972 l 457 972 b 1051 486 846 972 1051 763 b 457 0 1051 210 846 0 l 150 0 l 150 383 l 35 383 m 435 199 b 815 486 678 199 815 296 b 435 774 815 676 678 774 l 386 774 l 386 589 l 617 589 l 617 383 l 386 383 l 386 199 "},"Ø":{"ha":1146,"x_min":0,"x_max":0,"o":"m 572 992 b 783 953 650 992 721 978 l 871 1079 l 1090 1079 l 938 856 b 1090 486 1035 764 1090 632 b 572 -19 1090 207 890 -19 b 361 18 494 -19 424 -6 l 275 -107 l 56 -107 l 208 115 b 56 486 110 207 56 339 b 572 992 56 765 254 992 m 292 486 b 340 307 292 422 307 358 l 663 776 b 572 789 635 785 604 789 b 292 486 386 789 292 642 m 572 183 b 854 486 758 183 854 332 b 806 664 854 550 838 613 l 483 196 b 572 183 510 188 539 183 "},"Þ":{"ha":947,"x_min":0,"x_max":0,"o":"m 333 128 l 333 0 l 97 0 l 97 972 l 333 972 l 333 849 l 554 849 b 913 488 760 849 913 690 b 554 128 913 285 760 128 m 521 331 b 676 488 608 331 676 393 b 521 646 676 582 608 646 l 333 646 l 333 331 "},"Œ":{"ha":1508,"x_min":0,"x_max":0,"o":"m 1446 206 l 1446 0 l 629 0 b 56 486 253 0 56 210 b 629 972 56 763 253 972 l 1440 972 l 1440 767 l 997 767 l 997 596 l 1428 596 l 1428 390 l 997 390 l 997 206 m 292 486 b 651 199 292 296 421 199 l 761 199 l 761 774 l 651 774 b 292 486 421 774 292 676 "},"a":{"ha":924,"x_min":0,"x_max":0,"o":"m 396 717 b 617 596 501 717 585 667 l 617 700 l 840 700 l 840 0 l 621 0 l 621 104 b 396 -17 582 38 501 -17 b 46 350 193 -17 46 142 b 396 717 46 558 193 717 m 442 172 b 613 350 542 172 613 247 b 442 528 613 453 542 528 b 274 350 343 528 274 451 b 442 172 274 249 343 172 "},"à":{"ha":924,"x_min":0,"x_max":0,"o":"m 396 717 b 617 596 501 717 585 667 l 617 700 l 840 700 l 840 0 l 621 0 l 621 104 b 396 -17 582 38 501 -17 b 46 350 193 -17 46 142 b 396 717 46 558 193 717 m 442 172 b 613 350 542 172 613 247 b 442 528 613 453 542 528 b 274 350 343 528 274 451 b 442 172 274 249 343 172 m 383 783 l 207 1000 l 510 1000 l 611 783 "},"á":{"ha":924,"x_min":0,"x_max":0,"o":"m 396 717 b 617 596 501 717 585 667 l 617 700 l 840 700 l 840 0 l 621 0 l 621 104 b 396 -17 582 38 501 -17 b 46 350 193 -17 46 142 b 396 717 46 558 193 717 m 442 172 b 613 350 542 172 613 247 b 442 528 613 453 542 528 b 274 350 343 528 274 451 b 442 172 274 249 343 172 m 331 783 l 432 1000 l 735 1000 l 558 783 "},"â":{"ha":924,"x_min":0,"x_max":0,"o":"m 396 717 b 617 596 501 717 585 667 l 617 700 l 840 700 l 840 0 l 621 0 l 621 104 b 396 -17 582 38 501 -17 b 46 350 193 -17 46 142 b 396 717 46 558 193 717 m 442 172 b 613 350 542 172 613 247 b 442 528 613 453 542 528 b 274 350 343 528 274 451 b 442 172 274 249 343 172 m 765 783 l 549 783 l 494 854 l 440 783 l 224 783 l 410 1000 l 579 1000 "},"ã":{"ha":924,"x_min":0,"x_max":0,"o":"m 396 717 b 617 596 501 717 585 667 l 617 700 l 840 700 l 840 0 l 621 0 l 621 104 b 396 -17 582 38 501 -17 b 46 350 193 -17 46 142 b 396 717 46 558 193 717 m 442 172 b 613 350 542 172 613 247 b 442 528 613 453 542 528 b 274 350 343 528 274 451 b 442 172 274 249 343 172 m 617 789 b 410 835 543 789 481 835 b 357 778 376 835 365 814 l 181 813 b 344 1011 197 933 236 1011 b 543 965 428 1011 501 965 b 597 1019 578 965 589 989 l 772 979 b 617 789 760 871 726 789 "},"ä":{"ha":924,"x_min":0,"x_max":0,"o":"m 396 717 b 617 596 501 717 585 667 l 617 700 l 840 700 l 840 0 l 621 0 l 621 104 b 396 -17 582 38 501 -17 b 46 350 193 -17 46 142 b 396 717 46 558 193 717 m 442 172 b 613 350 542 172 613 247 b 442 528 613 453 542 528 b 274 350 343 528 274 451 b 442 172 274 249 343 172 m 206 896 b 325 1008 206 958 257 1008 b 444 896 393 1008 444 958 b 325 783 444 833 393 783 b 206 896 257 783 206 833 m 508 896 b 628 1008 508 958 560 1008 b 747 896 696 1008 747 958 b 628 783 747 833 696 783 b 508 896 560 783 508 833 "},"å":{"ha":924,"x_min":0,"x_max":0,"o":"m 396 717 b 617 596 501 717 585 667 l 617 700 l 840 700 l 840 0 l 621 0 l 621 104 b 396 -17 582 38 501 -17 b 46 350 193 -17 46 142 b 396 717 46 558 193 717 m 442 172 b 613 350 542 172 613 247 b 442 528 613 453 542 528 b 274 350 343 528 274 451 b 442 172 274 249 343 172 m 618 918 b 465 781 618 847 564 781 b 311 918 367 781 311 847 b 465 1056 311 989 367 1056 b 618 918 564 1056 618 989 m 407 918 b 465 861 407 885 428 861 b 525 918 503 861 525 885 b 465 975 525 951 503 975 b 407 918 428 975 407 951 "},"b":{"ha":924,"x_min":0,"x_max":0,"o":"m 528 717 b 878 350 731 717 878 558 b 528 -17 878 142 731 -17 b 303 104 422 -17 342 38 l 303 0 l 83 0 l 83 1014 l 311 1014 l 311 596 b 528 717 343 667 422 717 m 482 172 b 650 350 581 172 650 249 b 482 528 650 451 581 528 b 311 350 382 528 311 453 b 482 172 311 247 382 172 "},"":{"ha":924,"x_min":0,"x_max":0,"o":"m 528 717 b 311 596 422 717 343 667 l 311 1014 l 83 1014 l 83 0 l 303 0 l 303 104 b 528 -17 342 38 422 -17 b 878 350 731 -17 878 142 b 528 717 878 558 731 717 m 482 172 b 311 350 382 172 311 247 b 482 528 311 453 382 528 b 650 350 581 528 650 451 b 482 172 650 249 581 172 "},"c":{"ha":847,"x_min":0,"x_max":0,"o":"m 429 717 b 803 431 633 717 774 583 l 582 431 b 428 528 561 482 515 528 b 267 350 322 528 267 447 b 428 172 267 253 322 172 b 582 269 515 172 561 218 l 803 269 b 429 -17 774 117 633 -17 b 42 350 193 -17 42 139 b 429 717 42 561 193 717 "},"ç":{"ha":847,"x_min":0,"x_max":0,"o":"m 561 -178 b 400 -306 561 -256 494 -306 b 299 -292 367 -306 326 -301 l 299 -196 b 369 -206 315 -200 340 -206 b 415 -175 399 -206 415 -197 b 378 -143 415 -157 404 -146 l 313 -137 l 351 -10 b 42 350 160 19 42 163 b 429 717 42 561 193 717 b 803 431 633 717 774 583 l 582 431 b 428 528 561 482 515 528 b 267 350 322 528 267 447 b 428 172 267 253 322 172 b 582 269 515 172 561 218 l 803 269 b 450 -17 774 122 643 -7 l 438 -61 l 450 -62 b 561 -178 521 -71 561 -107 "},"d":{"ha":924,"x_min":0,"x_max":0,"o":"m 396 717 b 613 596 501 717 581 667 l 613 1014 l 840 1014 l 840 0 l 621 0 l 621 104 b 396 -17 582 38 501 -17 b 46 350 193 -17 46 142 b 396 717 46 558 193 717 m 442 172 b 613 350 542 172 613 247 b 442 528 613 453 542 528 b 274 350 343 528 274 451 b 442 172 274 249 343 172 "},"e":{"ha":836,"x_min":0,"x_max":0,"o":"m 425 149 b 572 218 493 149 546 175 l 782 218 b 425 -17 739 86 600 -17 b 42 351 181 -17 42 136 b 415 717 42 568 197 717 b 788 349 632 717 788 575 l 788 281 l 265 281 b 425 149 279 204 326 149 m 418 558 b 265 421 332 558 278 508 l 569 421 b 418 558 558 504 504 558 "},"è":{"ha":836,"x_min":0,"x_max":0,"o":"m 425 149 b 572 218 493 149 546 175 l 782 218 b 425 -17 739 86 600 -17 b 42 351 181 -17 42 136 b 415 717 42 568 197 717 b 788 349 632 717 788 575 l 788 281 l 265 281 b 425 149 279 204 326 149 m 418 558 b 265 421 332 558 278 508 l 569 421 b 418 558 558 504 504 558 m 310 783 l 133 1000 l 436 1000 l 538 783 "},"é":{"ha":836,"x_min":0,"x_max":0,"o":"m 425 149 b 572 218 493 149 546 175 l 782 218 b 425 -17 739 86 600 -17 b 42 351 181 -17 42 136 b 415 717 42 568 197 717 b 788 349 632 717 788 575 l 788 281 l 265 281 b 425 149 279 204 326 149 m 418 558 b 265 421 332 558 278 508 l 569 421 b 418 558 558 504 504 558 m 292 783 l 393 1000 l 696 1000 l 519 783 "},"ê":{"ha":836,"x_min":0,"x_max":0,"o":"m 425 149 b 572 218 493 149 546 175 l 782 218 b 425 -17 739 86 600 -17 b 42 351 181 -17 42 136 b 415 717 42 568 197 717 b 788 349 632 717 788 575 l 788 281 l 265 281 b 425 149 279 204 326 149 m 418 558 b 265 421 332 558 278 508 l 569 421 b 418 558 558 504 504 558 m 694 783 l 478 783 l 424 854 l 369 783 l 153 783 l 339 1000 l 508 1000 "},"ë":{"ha":836,"x_min":0,"x_max":0,"o":"m 425 149 b 572 218 493 149 546 175 l 782 218 b 425 -17 739 86 600 -17 b 42 351 181 -17 42 136 b 415 717 42 568 197 717 b 788 349 632 717 788 575 l 788 281 l 265 281 b 425 149 279 204 326 149 m 418 558 b 265 421 332 558 278 508 l 569 421 b 418 558 558 504 504 558 m 150 896 b 269 1008 150 958 201 1008 b 389 896 338 1008 389 958 b 269 783 389 833 338 783 b 150 896 201 783 150 833 m 453 896 b 572 1008 453 958 504 1008 b 692 896 640 1008 692 958 b 572 783 692 833 640 783 b 453 896 504 783 453 833 "},"f":{"ha":514,"x_min":0,"x_max":0,"o":"m 514 831 b 444 840 499 836 469 840 b 354 751 378 840 354 814 l 354 700 l 504 700 l 504 518 l 354 518 l 354 0 l 126 0 l 126 518 l 21 518 l 21 700 l 126 700 l 126 757 b 407 1031 126 935 213 1031 b 514 1017 444 1031 492 1025 "},"g":{"ha":914,"x_min":0,"x_max":0,"o":"m 389 717 b 607 596 494 717 575 667 l 607 700 l 831 700 l 831 14 b 439 -306 831 -168 660 -306 b 53 -56 244 -306 103 -222 l 279 -56 b 436 -131 306 -106 358 -131 b 603 15 529 -131 603 -82 l 603 126 b 389 17 571 69 488 17 b 46 367 186 17 46 167 b 389 717 46 567 186 717 m 435 203 b 603 367 535 203 603 272 b 435 531 603 461 535 531 b 271 367 336 531 271 461 b 435 203 271 272 336 203 "},"h":{"ha":843,"x_min":0,"x_max":0,"o":"m 311 0 l 83 0 l 83 1014 l 311 1014 l 311 603 b 515 717 342 671 422 717 b 767 435 683 717 767 601 l 767 0 l 539 0 l 539 397 b 428 519 539 469 504 519 b 311 399 360 519 311 478 "},"i":{"ha":408,"x_min":0,"x_max":0,"o":"m 90 0 l 90 700 l 318 700 l 318 0 m 335 908 b 204 779 335 835 278 779 b 74 908 132 779 74 835 b 204 1036 74 981 132 1036 b 335 908 278 1036 335 979 "},"ì":{"ha":408,"x_min":0,"x_max":0,"o":"m 90 0 l 90 700 l 318 700 l 318 0 m 92 783 l -85 1000 l 218 1000 l 319 783 "},"í":{"ha":408,"x_min":0,"x_max":0,"o":"m 90 0 l 90 700 l 318 700 l 318 0 m 94 783 l 196 1000 l 499 1000 l 322 783 "},"î":{"ha":408,"x_min":0,"x_max":0,"o":"m 90 0 l 90 700 l 318 700 l 318 0 m 475 783 l 258 783 l 204 854 l 150 783 l -67 783 l 119 1000 l 289 1000 "},"ï":{"ha":408,"x_min":0,"x_max":0,"o":"m 90 0 l 90 700 l 318 700 l 318 0 m -67 896 b 53 1008 -67 958 -15 1008 b 172 896 121 1008 172 958 b 53 783 172 833 121 783 b -67 896 -15 783 -67 833 m 236 896 b 356 1008 236 958 288 1008 b 475 896 424 1008 475 958 b 356 783 475 833 424 783 b 236 896 288 783 236 833 "},"j":{"ha":394,"x_min":0,"x_max":0,"o":"m 328 908 b 197 779 328 835 271 779 b 67 908 125 779 67 835 b 197 1036 67 981 125 1036 b 328 908 271 1036 328 979 m 311 700 l 311 -81 b 83 -306 311 -208 238 -306 b -33 -294 43 -306 6 -306 l -33 -108 b 17 -117 -18 -114 -1 -117 b 83 -53 58 -117 83 -97 l 83 700 "},"k":{"ha":825,"x_min":0,"x_max":0,"o":"m 83 0 l 83 1014 l 311 1014 l 311 361 l 533 700 l 785 700 l 547 351 l 797 0 l 532 0 l 311 332 l 311 0 "},"l":{"ha":394,"x_min":0,"x_max":0,"o":"m 83 0 l 83 1014 l 311 1014 l 311 0 "},"m":{"ha":1282,"x_min":0,"x_max":0,"o":"m 311 0 l 83 0 l 83 700 l 304 700 l 304 596 b 510 717 335 663 413 717 b 724 596 615 717 686 671 b 957 717 767 665 849 717 b 1206 435 1125 717 1206 601 l 1206 0 l 978 0 l 978 397 b 871 519 978 469 947 519 b 758 406 803 519 758 476 l 758 0 l 531 0 l 531 397 b 424 519 531 469 500 519 b 311 399 353 519 311 476 "},"n":{"ha":843,"x_min":0,"x_max":0,"o":"m 311 0 l 83 0 l 83 700 l 304 700 l 304 596 b 515 717 335 663 418 717 b 767 435 683 717 767 601 l 767 0 l 539 0 l 539 397 b 428 519 539 469 504 519 b 311 399 357 519 311 476 "},"ñ":{"ha":843,"x_min":0,"x_max":0,"o":"m 311 0 l 83 0 l 83 700 l 304 700 l 304 596 b 515 717 335 663 418 717 b 767 435 683 717 767 601 l 767 0 l 539 0 l 539 397 b 428 519 539 469 504 519 b 311 399 357 519 311 476 m 568 789 b 361 835 494 789 432 835 b 308 778 328 835 317 814 l 132 813 b 296 1011 149 933 188 1011 b 494 965 379 1011 453 965 b 549 1019 529 965 540 989 l 724 979 b 568 789 711 871 678 789 "},"o":{"ha":869,"x_min":0,"x_max":0,"o":"m 435 717 b 824 350 683 717 824 539 b 435 -17 824 161 683 -17 b 46 350 186 -17 46 161 b 435 717 46 539 186 717 m 435 172 b 601 350 546 172 601 257 b 435 528 601 443 546 528 b 268 350 324 528 268 443 b 435 172 268 257 324 172 "},"ò":{"ha":869,"x_min":0,"x_max":0,"o":"m 435 717 b 824 350 683 717 824 539 b 435 -17 824 161 683 -17 b 46 350 186 -17 46 161 b 435 717 46 539 186 717 m 435 172 b 601 350 546 172 601 257 b 435 528 601 443 546 528 b 268 350 324 528 268 443 b 435 172 268 257 324 172 m 319 783 l 143 1000 l 446 1000 l 547 783 "},"ó":{"ha":869,"x_min":0,"x_max":0,"o":"m 435 717 b 824 350 683 717 824 539 b 435 -17 824 161 683 -17 b 46 350 186 -17 46 161 b 435 717 46 539 186 717 m 435 172 b 601 350 546 172 601 257 b 435 528 601 443 546 528 b 268 350 324 528 268 443 b 435 172 268 257 324 172 m 318 783 l 419 1000 l 722 1000 l 546 783 "},"ô":{"ha":869,"x_min":0,"x_max":0,"o":"m 435 717 b 824 350 683 717 824 539 b 435 -17 824 161 683 -17 b 46 350 186 -17 46 161 b 435 717 46 539 186 717 m 435 172 b 601 350 546 172 601 257 b 435 528 601 443 546 528 b 268 350 324 528 268 443 b 435 172 268 257 324 172 m 706 783 l 489 783 l 435 854 l 381 783 l 164 783 l 350 1000 l 519 1000 "},"õ":{"ha":869,"x_min":0,"x_max":0,"o":"m 435 717 b 824 350 683 717 824 539 b 435 -17 824 161 683 -17 b 46 350 186 -17 46 161 b 435 717 46 539 186 717 m 435 172 b 601 350 546 172 601 257 b 435 528 601 443 546 528 b 268 350 324 528 268 443 b 435 172 268 257 324 172 m 575 789 b 368 835 501 789 439 835 b 315 778 335 835 324 814 l 139 813 b 303 1011 156 933 194 1011 b 501 965 386 1011 460 965 b 556 1019 536 965 547 989 l 731 979 b 575 789 718 871 685 789 "},"ö":{"ha":869,"x_min":0,"x_max":0,"o":"m 435 717 b 824 350 683 717 824 539 b 435 -17 824 161 683 -17 b 46 350 186 -17 46 161 b 435 717 46 539 186 717 m 435 172 b 601 350 546 172 601 257 b 435 528 601 443 546 528 b 268 350 324 528 268 443 b 435 172 268 257 324 172 m 164 896 b 283 1008 164 958 215 1008 b 403 896 351 1008 403 958 b 283 783 403 833 351 783 b 164 896 215 783 164 833 m 467 896 b 586 1008 467 958 518 1008 b 706 896 654 1008 706 958 b 586 783 706 833 654 783 b 467 896 518 783 467 833 "},"p":{"ha":924,"x_min":0,"x_max":0,"o":"m 528 -17 b 311 104 422 -17 343 33 l 311 -290 l 83 -290 l 83 700 l 303 700 l 303 596 b 528 717 342 663 422 717 b 878 350 731 717 878 558 b 528 -17 878 142 731 -17 m 482 528 b 311 350 382 528 311 453 b 482 172 311 247 382 172 b 650 350 581 172 650 249 b 482 528 650 451 581 528 "},"q":{"ha":924,"x_min":0,"x_max":0,"o":"m 396 -17 b 46 350 193 -17 46 142 b 396 717 46 558 193 717 b 621 596 501 717 582 663 l 621 700 l 840 700 l 840 -290 l 613 -290 l 613 104 b 396 -17 581 33 501 -17 m 442 528 b 274 350 343 528 274 451 b 442 172 274 249 343 172 b 613 350 542 172 613 247 b 442 528 613 453 542 528 "},"r":{"ha":553,"x_min":0,"x_max":0,"o":"m 533 479 l 488 479 b 311 292 363 479 311 428 l 311 0 l 83 0 l 83 700 l 304 700 l 304 561 b 511 706 333 674 419 706 l 533 706 "},"s":{"ha":647,"x_min":0,"x_max":0,"o":"m 226 218 b 324 136 231 168 263 136 b 407 201 375 136 407 164 b 350 261 407 233 389 251 l 254 286 b 60 497 119 319 60 383 b 322 717 60 635 179 717 b 579 499 479 717 567 626 l 392 499 b 326 564 390 529 372 564 b 264 511 286 564 264 542 b 318 456 264 481 283 464 l 442 422 b 611 224 557 392 611 325 b 326 -17 611 78 475 -17 b 39 218 175 -17 54 50 "},"":{"ha":647,"x_min":0,"x_max":0,"o":"m 39 218 b 326 -17 54 50 175 -17 b 611 224 475 -17 611 78 b 442 422 611 325 557 392 l 318 456 b 264 511 283 464 264 481 b 326 564 264 542 286 564 b 392 499 372 564 390 529 l 579 499 b 322 717 567 626 479 717 b 60 497 179 717 60 635 b 254 286 60 383 119 319 l 350 261 b 407 201 389 251 407 233 b 324 136 407 164 375 136 b 226 218 263 136 231 168 "},"t":{"ha":553,"x_min":0,"x_max":0,"o":"m 438 172 b 510 183 465 172 488 176 l 510 3 b 375 -17 486 -7 422 -17 b 131 238 207 -17 131 83 l 131 513 l 10 513 l 10 700 l 131 700 l 131 910 l 358 910 l 358 700 l 517 700 l 517 513 l 358 513 l 358 251 b 438 172 358 197 383 172 "},"u":{"ha":838,"x_min":0,"x_max":0,"o":"m 526 700 l 754 700 l 754 0 l 533 0 l 533 104 b 325 -17 503 38 422 -17 b 76 265 157 -17 76 99 l 76 700 l 304 700 l 304 300 b 413 178 304 228 336 178 b 526 299 485 178 526 224 "},"ù":{"ha":838,"x_min":0,"x_max":0,"o":"m 526 700 l 754 700 l 754 0 l 533 0 l 533 104 b 325 -17 503 38 422 -17 b 76 265 157 -17 76 99 l 76 700 l 304 700 l 304 300 b 413 178 304 228 336 178 b 526 299 485 178 526 224 m 331 783 l 154 1000 l 457 1000 l 558 783 "},"ú":{"ha":838,"x_min":0,"x_max":0,"o":"m 526 700 l 754 700 l 754 0 l 533 0 l 533 104 b 325 -17 503 38 422 -17 b 76 265 157 -17 76 99 l 76 700 l 304 700 l 304 300 b 413 178 304 228 336 178 b 526 299 485 178 526 224 m 290 783 l 392 1000 l 694 1000 l 518 783 "},"û":{"ha":838,"x_min":0,"x_max":0,"o":"m 526 700 l 754 700 l 754 0 l 533 0 l 533 104 b 325 -17 503 38 422 -17 b 76 265 157 -17 76 99 l 76 700 l 304 700 l 304 300 b 413 178 304 228 336 178 b 526 299 485 178 526 224 m 694 783 l 478 783 l 424 854 l 369 783 l 153 783 l 339 1000 l 508 1000 "},"ü":{"ha":838,"x_min":0,"x_max":0,"o":"m 526 700 l 754 700 l 754 0 l 533 0 l 533 104 b 325 -17 503 38 422 -17 b 76 265 157 -17 76 99 l 76 700 l 304 700 l 304 300 b 413 178 304 228 336 178 b 526 299 485 178 526 224 m 147 896 b 267 1008 147 958 199 1008 b 386 896 335 1008 386 958 b 267 783 386 833 335 783 b 147 896 199 783 147 833 m 450 896 b 569 1008 450 958 501 1008 b 689 896 638 1008 689 958 b 569 783 689 833 638 783 b 450 896 501 783 450 833 "},"v":{"ha":783,"x_min":0,"x_max":0,"o":"m 546 700 l 781 700 l 497 0 l 286 0 l 3 700 l 238 700 l 392 258 "},"w":{"ha":1153,"x_min":0,"x_max":0,"o":"m 826 271 l 938 700 l 1158 700 l 938 0 l 743 0 l 576 431 l 410 0 l 215 0 l -6 700 l 215 700 l 326 271 l 483 700 l 669 700 "},"":{"ha":1153,"x_min":0,"x_max":0,"o":"m 669 700 l 483 700 l 326 271 l 215 700 l -6 700 l 215 0 l 410 0 l 576 431 l 743 0 l 938 0 l 1158 700 l 938 700 l 826 271 "},"x":{"ha":768,"x_min":0,"x_max":0,"o":"m 503 350 l 747 0 l 508 0 l 383 182 l 260 0 l 21 0 l 265 350 l 24 700 l 260 700 l 383 517 l 508 700 l 744 700 "},"y":{"ha":775,"x_min":0,"x_max":0,"o":"m 538 700 l 772 700 l 493 0 l 388 -290 l 150 -290 l 271 28 l 3 700 l 238 700 l 388 247 "},"":{"ha":775,"x_min":0,"x_max":0,"o":"m 388 247 l 238 700 l 3 700 l 271 28 l 150 -290 l 388 -290 l 493 0 l 772 700 l 538 700 "},"ý":{"ha":775,"x_min":0,"x_max":0,"o":"m 538 700 l 772 700 l 493 0 l 388 -290 l 150 -290 l 271 28 l 3 700 l 238 700 l 388 247 m 269 783 l 371 1000 l 674 1000 l 497 783 "},"ÿ":{"ha":775,"x_min":0,"x_max":0,"o":"m 538 700 l 772 700 l 493 0 l 388 -290 l 150 -290 l 271 28 l 3 700 l 238 700 l 388 247 m 117 896 b 236 1008 117 958 168 1008 b 356 896 304 1008 356 958 b 236 783 356 833 304 783 b 117 896 168 783 117 833 m 419 896 b 539 1008 419 958 471 1008 b 658 896 607 1008 658 958 b 539 783 658 833 607 783 b 419 896 471 783 419 833 "},"z":{"ha":688,"x_min":0,"x_max":0,"o":"m 39 0 l 39 7 l 315 524 l 49 524 l 49 700 l 646 700 l 646 693 l 371 179 l 656 179 l 656 0 "},"ª":{"ha":699,"x_min":0,"x_max":0,"o":"m 89 432 l 622 432 l 622 296 l 89 296 m 311 986 b 458 907 382 986 438 953 l 458 975 l 611 975 l 611 511 l 461 511 l 461 579 b 311 500 439 536 382 500 b 76 743 176 500 76 606 b 311 986 76 881 176 986 m 343 629 b 454 743 411 629 454 676 b 343 857 454 810 411 857 b 232 743 279 857 232 811 b 343 629 232 675 279 629 "},"º":{"ha":674,"x_min":0,"x_max":0,"o":"m 338 986 b 597 743 501 986 597 868 b 338 500 597 618 501 500 b 76 743 172 500 76 618 b 338 986 76 868 172 986 m 338 628 b 449 743 411 628 449 682 b 338 858 449 804 411 858 b 225 743 264 858 225 804 b 338 628 225 682 264 628 m 79 432 l 594 432 l 594 296 l 79 296 "},"ß":{"ha":892,"x_min":0,"x_max":0,"o":"m 425 839 b 311 715 349 839 311 793 l 311 0 l 83 0 l 83 713 b 426 1028 83 915 228 1028 b 767 738 629 1028 767 914 b 640 518 767 644 726 558 b 857 286 774 500 857 421 b 496 0 857 101 731 0 l 432 0 l 432 178 l 472 178 b 629 297 568 178 629 207 b 478 410 629 369 578 410 l 431 410 l 431 589 b 539 718 496 603 539 640 b 425 839 539 794 494 839 "},"æ":{"ha":1311,"x_min":0,"x_max":0,"o":"m 900 149 b 1047 218 968 149 1021 175 l 1257 218 b 900 -17 1214 86 1075 -17 b 625 89 782 -17 675 25 b 346 -17 568 31 458 -17 b 46 218 149 -17 46 74 b 319 443 46 361 143 443 b 517 403 393 443 471 425 l 517 418 b 351 544 517 504 464 544 b 122 497 268 544 186 529 l 122 669 b 376 717 178 699 278 717 b 638 615 490 717 579 679 b 893 717 693 678 792 717 b 1263 349 1110 717 1263 575 l 1263 281 l 740 281 b 900 149 754 204 801 149 m 376 135 b 517 246 464 135 517 175 l 517 261 b 372 292 483 281 425 292 b 258 213 300 292 258 269 b 376 135 258 157 300 135 m 893 558 b 740 421 807 558 753 508 l 1044 421 b 893 558 1033 504 979 558 "},"ð":{"ha":867,"x_min":0,"x_max":0,"o":"m 179 846 l 297 879 l 135 1014 l 429 1014 b 524 943 467 989 497 965 l 721 1000 l 771 856 l 654 822 b 821 399 760 710 821 581 b 418 -17 821 163 672 -17 b 46 344 167 -17 46 158 b 365 681 46 558 201 681 b 572 614 444 681 519 663 b 440 761 546 665 496 714 l 229 701 m 271 338 b 428 168 271 240 324 168 b 589 344 529 168 589 233 b 432 506 589 440 531 506 b 271 338 336 506 271 444 "},"ø":{"ha":869,"x_min":0,"x_max":0,"o":"m 435 717 b 590 689 492 717 544 707 l 671 807 l 824 807 l 699 625 b 824 350 781 556 824 454 b 435 -17 824 161 683 -17 b 278 10 376 -17 324 -7 l 199 -107 l 46 -107 l 169 75 b 46 350 89 144 46 244 b 435 717 46 539 186 717 m 435 172 b 601 350 546 172 601 257 b 578 447 601 385 593 419 l 392 176 b 435 172 406 174 419 172 m 268 350 b 292 253 268 315 275 281 l 476 522 b 435 528 468 525 451 528 b 268 350 324 528 268 443 "},"þ":{"ha":924,"x_min":0,"x_max":0,"o":"m 528 -17 b 311 104 422 -17 343 33 l 311 -290 l 83 -290 l 83 1014 l 311 1014 l 311 604 b 528 717 349 663 429 717 b 878 350 731 717 878 558 b 528 -17 878 142 731 -17 m 482 528 b 311 350 382 528 311 453 b 482 172 311 247 382 172 b 650 350 581 172 650 249 b 482 528 650 451 581 528 "},"œ":{"ha":1396,"x_min":0,"x_max":0,"o":"m 985 149 b 1132 218 1053 149 1106 175 l 1342 218 b 985 -17 1299 86 1160 -17 b 707 83 865 -17 772 22 b 435 -17 642 22 550 -17 b 46 350 186 -17 46 161 b 435 717 46 539 186 717 b 708 614 550 717 643 676 b 975 717 775 676 867 717 b 1347 349 1192 717 1347 575 l 1347 281 l 825 281 b 985 149 839 204 886 149 m 435 172 b 601 350 546 172 601 257 b 435 528 601 443 546 528 b 268 350 324 528 268 443 b 435 172 268 257 324 172 m 978 558 b 825 421 892 558 838 508 l 1129 421 b 978 558 1118 504 1064 558 "},"¹":{"ha":432,"x_min":0,"x_max":0,"o":"m 332 1168 l 335 1168 l 335 632 l 175 632 l 175 983 l 56 957 l 56 1106 "},"²":{"ha":531,"x_min":0,"x_max":0,"o":"m 63 976 b 278 1171 72 1094 143 1171 b 482 997 401 1171 482 1094 b 422 857 482 936 463 903 l 338 763 l 481 763 l 481 632 l 49 632 l 49 638 l 292 935 b 322 997 310 958 322 972 b 271 1044 322 1021 307 1044 b 213 976 229 1044 213 1018 "},"³":{"ha":514,"x_min":0,"x_max":0,"o":"m 210 1033 l 68 1033 l 68 1163 l 449 1163 l 449 1157 l 322 964 b 465 811 408 957 465 901 b 256 624 465 708 379 624 b 49 799 133 624 58 697 l 186 799 b 256 747 192 772 214 747 b 326 808 300 747 326 775 b 258 864 326 840 304 864 l 108 864 l 108 874 "},"¼":{"ha":1244,"x_min":0,"x_max":0,"o":"m 976 100 l 656 100 l 656 106 l 853 528 l 1013 528 l 874 219 l 976 219 l 976 322 l 1131 322 l 1131 219 l 1196 219 l 1196 100 l 1131 100 l 1131 0 l 976 0 m 778 972 l 972 972 l 379 0 l 185 0 m 325 979 l 328 979 l 328 443 l 168 443 l 168 794 l 49 768 l 49 917 "},"½":{"ha":1196,"x_min":0,"x_max":0,"o":"m 778 972 l 972 972 l 379 0 l 185 0 m 325 979 l 328 979 l 328 443 l 168 443 l 168 794 l 49 768 l 49 917 m 728 344 b 943 539 738 463 808 539 b 1147 365 1067 539 1147 463 b 1088 225 1147 304 1128 271 l 1003 131 l 1146 131 l 1146 0 l 714 0 l 714 6 l 957 303 b 988 365 975 326 988 340 b 936 413 988 389 972 413 b 878 344 894 413 878 386 "},"¾":{"ha":1292,"x_min":0,"x_max":0,"o":"m 1024 100 l 703 100 l 703 106 l 900 528 l 1060 528 l 921 219 l 1024 219 l 1024 322 l 1178 322 l 1178 219 l 1243 219 l 1243 100 l 1178 100 l 1178 0 l 1024 0 m 825 972 l 1019 972 l 426 0 l 232 0 m 210 843 l 68 843 l 68 972 l 449 972 l 449 967 l 322 774 b 465 621 408 767 465 711 b 256 433 465 518 379 433 b 49 608 133 433 58 507 l 186 608 b 256 557 192 582 214 557 b 326 618 300 557 326 585 b 258 674 326 650 304 674 l 108 674 l 108 683 "},"_":{"ha":757,"x_min":0,"x_max":0,"o":"m -1 -203 l -1 -75 l 758 -75 l 758 -203 "},"-":{"ha":583,"x_min":0,"x_max":0,"o":"m 69 293 l 69 496 l 514 496 l 514 293 "},"­":{"ha":583,"x_min":0,"x_max":0,"o":"m 514 293 l 514 496 l 69 496 l 69 293 "},"–":{"ha":833,"x_min":0,"x_max":0,"o":"m 69 293 l 69 496 l 764 496 l 764 293 "},"—":{"ha":1301,"x_min":0,"x_max":0,"o":"m 69 293 l 69 496 l 1232 496 l 1232 293 "},"(":{"ha":540,"x_min":0,"x_max":0,"o":"m 533 1086 b 322 450 403 858 322 667 b 533 -186 322 233 403 42 l 310 -186 b 90 450 174 14 90 232 b 310 1086 90 668 174 886 "},")":{"ha":540,"x_min":0,"x_max":0,"o":"m 231 1086 b 450 450 367 886 450 668 b 231 -186 450 232 367 14 l 7 -186 b 218 450 138 42 218 233 b 7 1086 218 667 138 858 "},"[":{"ha":569,"x_min":0,"x_max":0,"o":"m 111 -186 l 111 1086 l 535 1086 l 535 894 l 339 894 l 339 6 l 535 6 l 535 -186 "},"]":{"ha":569,"x_min":0,"x_max":0,"o":"m 35 -186 l 35 6 l 231 6 l 231 894 l 35 894 l 35 1086 l 458 1086 l 458 -186 "},"{":{"ha":615,"x_min":0,"x_max":0,"o":"m 86 546 b 197 658 165 546 197 588 l 197 807 b 481 1086 197 990 279 1086 l 585 1086 l 585 894 l 518 894 b 425 793 447 894 425 861 l 425 643 b 269 450 425 531 372 468 b 425 257 372 432 425 369 l 425 107 b 518 6 425 39 447 6 l 585 6 l 585 -186 l 481 -186 b 197 93 279 -186 197 -90 l 197 242 b 86 354 197 313 165 354 l 28 354 l 28 546 "},"}":{"ha":615,"x_min":0,"x_max":0,"o":"m 588 546 l 588 354 l 529 354 b 418 242 450 354 418 313 l 418 93 b 135 -186 418 -90 336 -186 l 31 -186 l 31 6 l 97 6 b 190 107 168 6 190 39 l 190 257 b 346 450 190 369 243 432 b 190 643 243 468 190 531 l 190 793 b 97 894 190 861 168 894 l 31 894 l 31 1086 l 135 1086 b 418 807 336 1086 418 990 l 418 658 b 529 546 418 588 450 546 "},"#":{"ha":994,"x_min":0,"x_max":0,"o":"m 828 751 l 939 751 l 939 589 l 800 589 l 765 383 l 901 383 l 901 221 l 738 221 l 700 0 l 517 0 l 554 221 l 353 221 l 315 0 l 132 0 l 169 221 l 56 221 l 56 383 l 197 383 l 232 589 l 93 589 l 93 751 l 260 751 l 297 972 l 481 972 l 443 751 l 644 751 l 682 972 l 865 972 m 381 383 l 582 383 l 617 589 l 415 589 "},"%":{"ha":1408,"x_min":0,"x_max":0,"o":"m 901 972 l 1099 972 l 506 0 l 308 0 m 613 724 b 331 461 613 583 506 461 b 49 724 156 461 49 583 b 331 986 49 864 156 986 b 613 724 506 986 613 864 m 449 724 b 331 844 449 796 400 844 b 213 724 261 844 213 796 b 331 603 213 651 260 603 b 449 724 401 603 449 651 m 1360 249 b 1078 -14 1360 108 1253 -14 b 796 249 903 -14 796 108 b 1078 511 796 389 903 511 b 1360 249 1253 511 1360 389 m 1196 249 b 1078 369 1196 321 1147 369 b 960 249 1008 369 960 321 b 1078 128 960 176 1007 128 b 1196 249 1149 128 1196 176 "},"'":{"ha":403,"x_min":0,"x_max":0,"o":"m 97 972 l 306 972 l 306 572 l 97 572 "},"\"":{"ha":735,"x_min":0,"x_max":0,"o":"m 97 972 l 306 972 l 306 572 l 97 572 m 429 972 l 638 972 l 638 572 l 429 572 "},"‘":{"ha":463,"x_min":0,"x_max":0,"o":"m 325 574 l 49 574 l 210 972 l 414 972 "},"’":{"ha":463,"x_min":0,"x_max":0,"o":"m 138 972 l 414 972 l 253 574 l 49 574 "},"“":{"ha":835,"x_min":0,"x_max":0,"o":"m 697 574 l 421 574 l 582 972 l 786 972 m 325 574 l 49 574 l 210 972 l 414 972 "},"”":{"ha":835,"x_min":0,"x_max":0,"o":"m 138 972 l 414 972 l 253 574 l 49 574 m 510 972 l 786 972 l 625 574 l 421 574 "},"„":{"ha":821,"x_min":0,"x_max":0,"o":"m 117 208 l 393 208 l 232 -190 l 28 -190 m 489 208 l 765 208 l 604 -190 l 400 -190 "},"‹":{"ha":619,"x_min":0,"x_max":0,"o":"m 310 358 l 550 56 l 272 56 l 35 358 l 272 661 l 550 661 "},"›":{"ha":619,"x_min":0,"x_max":0,"o":"m 69 661 l 347 661 l 585 358 l 347 56 l 69 56 l 310 358 "},"«":{"ha":1053,"x_min":0,"x_max":0,"o":"m 310 358 l 550 56 l 272 56 l 35 358 l 272 661 l 550 661 m 743 358 l 983 56 l 706 56 l 468 358 l 706 661 l 983 661 "},"»":{"ha":1053,"x_min":0,"x_max":0,"o":"m 503 661 l 781 661 l 1018 358 l 781 56 l 503 56 l 743 358 m 69 661 l 347 661 l 585 358 l 347 56 l 69 56 l 310 358 "},"*":{"ha":661,"x_min":0,"x_max":0,"o":"m 381 639 l 381 474 l 281 474 l 281 639 l 142 553 l 90 639 l 236 722 l 90 806 l 140 892 l 281 804 l 281 972 l 381 972 l 381 804 l 521 892 l 571 806 l 425 722 l 571 639 l 519 553 "},".":{"ha":394,"x_min":0,"x_max":0,"o":"m 63 119 b 197 253 63 196 118 253 b 332 119 276 253 332 196 b 197 -14 332 43 276 -14 b 63 119 118 -14 63 43 "},",":{"ha":454,"x_min":0,"x_max":0,"o":"m 122 208 l 399 208 l 232 -204 l 28 -204 "},":":{"ha":394,"x_min":0,"x_max":0,"o":"m 63 119 b 197 253 63 196 118 253 b 332 119 276 253 332 196 b 197 -14 332 43 276 -14 b 63 119 118 -14 63 43 m 63 501 b 197 635 63 578 118 635 b 332 501 276 635 332 578 b 197 368 332 425 276 368 b 63 501 118 368 63 425 "},";":{"ha":461,"x_min":0,"x_max":0,"o":"m 115 208 l 392 208 l 225 -204 l 21 -204 m 129 501 b 264 635 129 578 185 635 b 399 501 343 635 399 578 b 264 368 399 425 343 368 b 129 501 185 368 129 425 "},"…":{"ha":1183,"x_min":0,"x_max":0,"o":"m 63 119 b 197 253 63 196 118 253 b 332 119 276 253 332 196 b 197 -14 332 43 276 -14 b 63 119 118 -14 63 43 m 457 119 b 592 253 457 196 513 253 b 726 119 671 253 726 196 b 592 -14 726 43 671 -14 b 457 119 513 -14 457 43 m 851 119 b 986 253 851 196 907 253 b 1121 119 1065 253 1121 196 b 986 -14 1121 43 1065 -14 b 851 119 907 -14 851 43 "},"!":{"ha":439,"x_min":0,"x_max":0,"o":"m 289 326 l 150 326 l 83 972 l 356 972 m 85 119 b 219 253 85 196 140 253 b 354 119 299 253 354 196 b 219 -14 354 43 299 -14 b 85 119 140 -14 85 43 "},"¡":{"ha":439,"x_min":0,"x_max":0,"o":"m 289 363 l 150 363 l 83 -283 l 356 -283 m 85 569 b 219 436 85 493 140 436 b 354 569 299 436 354 493 b 219 703 354 646 299 703 b 85 569 140 703 85 646 "},"?":{"ha":715,"x_min":0,"x_max":0,"o":"m 236 317 l 236 360 b 347 576 236 458 264 501 b 446 711 422 644 446 668 b 360 792 446 756 417 792 b 268 689 304 792 269 754 l 44 689 b 364 992 50 888 176 992 b 674 714 549 992 674 864 b 535 460 674 594 604 525 b 457 340 490 418 457 400 l 457 317 m 213 122 b 347 256 213 199 268 256 b 482 122 426 256 482 199 b 347 -11 482 46 426 -11 b 213 122 268 -11 213 46 "},"¿":{"ha":715,"x_min":0,"x_max":0,"o":"m 479 372 l 479 329 b 368 113 479 231 451 188 b 269 -22 293 44 269 21 b 356 -103 269 -67 299 -103 b 447 0 411 -103 446 -65 l 671 0 b 351 -303 665 -199 539 -303 b 42 -25 167 -303 42 -175 b 181 229 42 94 111 164 b 258 349 225 271 258 289 l 258 372 m 503 567 b 368 433 503 490 447 433 b 233 567 289 433 233 490 b 368 700 233 643 289 700 b 503 567 447 700 503 643 "},"/":{"ha":822,"x_min":0,"x_max":0,"o":"m 547 1042 l 778 1042 l 275 -146 l 44 -146 "},"\\":{"ha":822,"x_min":0,"x_max":0,"o":"m 778 -146 l 547 -146 l 44 1042 l 275 1042 "},"|":{"ha":489,"x_min":0,"x_max":0,"o":"m 153 -208 l 153 1111 l 336 1111 l 336 -208 "},"¦":{"ha":489,"x_min":0,"x_max":0,"o":"m 153 569 l 153 1111 l 336 1111 l 336 569 m 336 333 l 336 -208 l 153 -208 l 153 333 "},"@":{"ha":1331,"x_min":0,"x_max":0,"o":"m 978 685 l 928 436 b 1004 251 907 335 922 251 b 1132 504 1092 251 1132 376 b 693 878 1132 706 982 878 b 211 378 400 878 211 661 b 683 -37 211 128 386 -37 b 996 10 792 -37 917 -18 l 996 -101 b 682 -153 932 -125 788 -153 b 76 379 328 -153 76 56 b 703 992 76 732 339 992 b 1261 507 1044 992 1261 778 b 1001 139 1261 306 1169 139 b 804 279 879 139 825 210 b 588 168 753 203 669 168 b 354 403 456 168 354 268 b 629 697 354 567 469 697 b 801 604 718 697 782 647 l 817 685 m 651 564 b 519 417 568 564 519 492 b 628 300 519 349 560 300 b 763 450 711 300 763 371 b 651 564 763 521 715 564 "},"&":{"ha":1068,"x_min":0,"x_max":0,"o":"m 733 89 b 438 -19 665 21 554 -19 b 69 306 231 -19 69 99 b 331 626 69 474 172 581 l 76 964 l 76 972 l 801 972 l 801 783 l 475 783 l 719 444 l 772 560 l 993 560 l 849 264 l 1040 0 l 801 0 m 454 157 b 621 240 528 157 576 182 l 432 490 b 294 310 360 465 294 406 b 454 157 294 217 353 157 "},"§":{"ha":768,"x_min":0,"x_max":0,"o":"m 63 435 b 171 614 63 529 119 583 b 115 753 135 653 115 699 b 394 992 115 897 226 992 b 660 743 556 992 660 890 l 472 743 b 390 833 471 792 449 833 b 313 767 343 833 313 808 b 454 656 313 713 351 693 b 719 396 607 600 719 542 b 624 201 719 322 675 243 b 664 83 650 168 664 129 b 385 -168 664 -61 543 -168 b 110 82 218 -168 110 -65 l 297 82 b 386 -10 299 28 325 -10 b 467 58 438 -10 467 19 b 331 163 467 104 439 119 b 63 435 161 231 63 292 m 415 331 b 493 296 443 319 471 308 b 522 365 510 315 522 338 b 371 490 522 417 490 443 b 293 525 343 501 313 514 b 260 458 276 510 260 489 b 415 331 260 411 282 382 "},"¶":{"ha":969,"x_min":0,"x_max":0,"o":"m 435 233 b 63 597 224 257 63 379 b 511 972 63 840 244 972 l 872 972 l 872 -242 l 729 -242 l 729 843 l 578 843 l 578 -242 l 435 -242 "},"·":{"ha":394,"x_min":0,"x_max":0,"o":"m 63 375 b 197 508 63 451 118 508 b 332 375 276 508 332 451 b 197 242 332 299 276 242 b 63 375 118 242 63 299 "},"•":{"ha":567,"x_min":0,"x_max":0,"o":"m 483 444 b 283 250 483 338 406 250 b 83 444 161 250 83 338 b 283 639 83 551 161 639 b 483 444 406 639 483 551 "},"+":{"ha":833,"x_min":0,"x_max":0,"o":"m 528 401 l 528 158 l 308 158 l 308 401 l 90 401 l 90 599 l 308 599 l 308 842 l 528 842 l 528 599 l 743 599 l 743 401 "},"±":{"ha":835,"x_min":0,"x_max":0,"o":"m 92 192 l 308 192 l 308 401 l 90 401 l 90 599 l 308 599 l 308 842 l 528 842 l 528 599 l 743 599 l 743 401 l 528 401 l 528 192 l 744 192 l 744 0 l 92 0 "},"÷":{"ha":833,"x_min":0,"x_max":0,"o":"m 90 599 l 743 599 l 743 401 l 90 401 m 297 213 b 417 331 297 279 347 331 b 536 213 486 331 536 279 b 417 94 536 146 486 94 b 297 213 347 94 297 146 m 297 788 b 417 906 297 854 347 906 b 536 788 486 906 536 854 b 417 669 536 721 486 669 b 297 788 347 669 297 721 "},"×":{"ha":808,"x_min":0,"x_max":0,"o":"m 404 363 l 221 179 l 83 317 l 267 500 l 83 683 l 221 821 l 404 638 l 588 821 l 725 683 l 542 500 l 725 317 l 588 179 "},"=":{"ha":847,"x_min":0,"x_max":0,"o":"m 104 583 l 104 769 l 743 769 l 743 583 m 104 231 l 104 417 l 743 417 l 743 231 "},"<":{"ha":792,"x_min":0,"x_max":0,"o":"m 701 856 l 701 631 l 429 500 l 701 369 l 701 144 l 35 500 "},">":{"ha":792,"x_min":0,"x_max":0,"o":"m 757 500 l 90 144 l 90 369 l 363 500 l 90 631 l 90 856 "},"$":{"ha":743,"x_min":0,"x_max":0,"o":"m 688 307 b 494 24 688 164 603 65 l 494 -153 l 274 -153 l 274 11 b 63 285 144 43 69 144 l 271 285 b 369 183 274 233 300 183 b 467 279 431 183 467 224 b 326 407 467 335 435 372 b 67 692 140 467 67 558 b 261 958 67 831 147 925 l 261 1125 l 482 1125 l 482 953 b 654 690 593 913 651 815 l 446 690 b 367 789 446 739 429 789 b 288 714 318 789 288 760 b 417 600 288 671 301 640 b 688 307 578 544 688 469 "},"¢":{"ha":811,"x_min":0,"x_max":0,"o":"m 574 774 b 746 549 667 728 731 644 l 550 549 b 410 643 532 597 490 643 b 268 486 315 643 268 569 b 410 329 268 403 315 329 b 550 424 490 329 532 375 l 746 424 b 460 165 725 292 614 183 l 428 0 l 197 0 l 236 201 b 69 486 131 254 69 358 b 349 806 69 654 176 781 l 381 972 l 611 972 "},"£":{"ha":885,"x_min":0,"x_max":0,"o":"m 56 542 l 157 542 l 176 706 b 507 992 200 894 317 992 b 818 686 694 992 806 868 l 607 686 b 507 800 601 753 572 800 b 410 699 446 800 417 764 l 393 542 l 657 542 l 657 354 l 374 354 l 357 188 l 778 188 l 778 0 l 96 0 l 96 14 l 135 354 l 56 354 "},"¤":{"ha":975,"x_min":0,"x_max":0,"o":"m 488 781 b 586 768 524 781 556 776 l 651 863 l 899 863 l 749 658 b 797 500 781 613 797 557 b 749 342 797 442 781 388 l 899 138 l 651 138 l 586 231 b 488 219 556 224 524 219 b 389 231 451 219 418 224 l 324 138 l 76 138 l 226 343 b 179 500 194 388 179 443 b 226 657 179 557 194 611 l 76 863 l 324 863 l 389 768 b 488 781 418 776 451 781 m 488 368 b 621 500 571 368 621 431 b 488 632 621 569 571 632 b 356 500 404 632 356 569 b 488 368 356 431 404 368 "},"¥":{"ha":794,"x_min":0,"x_max":0,"o":"m 711 174 l 513 174 l 513 0 l 282 0 l 282 174 l 83 174 l 83 344 l 282 344 l 282 369 l 251 442 l 83 442 l 83 614 l 178 614 l 25 972 l 268 972 l 397 590 l 526 972 l 769 972 l 617 614 l 711 614 l 711 442 l 543 442 l 513 369 l 513 344 l 711 344 "},"€":{"ha":828,"x_min":0,"x_max":0,"o":"m 660 793 b 438 688 551 793 479 760 l 713 688 l 713 532 l 397 532 b 396 486 396 517 396 501 b 397 440 396 469 396 454 l 713 440 l 713 285 l 438 285 b 660 179 479 213 551 179 b 786 194 707 179 751 185 l 786 1 b 646 -19 761 -8 696 -19 b 189 285 407 -19 251 94 l 44 285 l 44 440 l 161 440 b 160 486 160 456 160 471 b 161 532 160 501 160 517 l 44 532 l 44 688 l 189 688 b 646 992 251 876 407 992 b 786 971 696 992 761 981 l 786 778 b 660 793 751 788 707 793 "},"^":{"ha":733,"x_min":0,"x_max":0,"o":"m 685 569 l 456 569 l 367 701 l 278 569 l 49 569 l 367 986 "},"~":{"ha":936,"x_min":0,"x_max":0,"o":"m 874 590 b 644 335 831 443 781 335 b 356 433 531 335 432 433 b 269 335 293 433 283 390 l 69 386 b 318 667 104 571 164 667 b 601 568 428 667 549 568 b 678 657 651 568 660 601 "},"´":{"ha":571,"x_min":0,"x_max":0,"o":"m 83 783 l 185 1000 l 488 1000 l 311 783 "},"`":{"ha":571,"x_min":0,"x_max":0,"o":"m 260 783 l 83 1000 l 386 1000 l 488 783 "},"˜":{"ha":758,"x_min":0,"x_max":0,"o":"m 519 789 b 313 835 446 789 383 835 b 260 778 279 835 268 814 l 83 813 b 247 1011 100 933 139 1011 b 446 965 331 1011 404 965 b 500 1019 481 965 492 989 l 675 979 b 519 789 663 871 629 789 "},"¯":{"ha":671,"x_min":0,"x_max":0,"o":"m 83 797 l 83 975 l 588 975 l 588 797 "},"¨":{"ha":708,"x_min":0,"x_max":0,"o":"m 83 896 b 203 1008 83 958 135 1008 b 322 896 271 1008 322 958 b 203 783 322 833 271 783 b 83 896 135 783 83 833 m 386 896 b 506 1008 386 958 438 1008 b 625 896 574 1008 625 958 b 506 783 625 833 574 783 b 386 896 438 783 386 833 "},"¸":{"ha":429,"x_min":0,"x_max":0,"o":"m 346 -178 b 185 -306 346 -256 279 -306 b 83 -292 151 -306 111 -301 l 83 -196 b 154 -206 100 -200 125 -206 b 200 -175 183 -206 200 -197 b 163 -143 200 -157 189 -146 l 97 -137 l 140 0 l 240 0 l 222 -61 l 235 -62 b 346 -178 306 -71 346 -107 "},"©":{"ha":1131,"x_min":0,"x_max":0,"o":"m 56 486 b 565 992 56 764 265 992 b 1075 486 868 992 1075 764 b 565 -19 1075 208 868 -19 b 56 486 265 -19 56 208 m 1008 486 b 565 935 1008 719 838 935 b 122 486 296 935 122 719 b 565 38 122 253 296 38 b 1008 486 838 38 1008 253 m 699 554 b 576 629 681 593 639 629 b 438 486 486 629 438 567 b 576 343 438 406 486 343 b 699 418 639 343 681 379 l 822 418 b 576 233 800 321 708 233 b 313 486 406 233 313 346 b 576 739 313 626 406 739 b 822 554 708 739 800 651 "},"®":{"ha":747,"x_min":0,"x_max":0,"o":"m 63 686 b 374 989 63 849 178 989 b 685 686 569 989 685 849 b 374 383 685 528 569 383 b 63 686 178 383 63 528 m 119 686 b 374 432 119 544 221 432 b 628 686 526 432 628 544 b 374 940 628 829 526 940 b 119 686 221 940 119 829 m 490 732 b 433 643 490 692 468 658 l 507 564 l 418 564 l 354 635 l 340 635 l 340 564 l 271 564 l 271 829 l 389 829 b 490 732 447 829 490 786 m 378 690 b 424 732 404 690 424 706 b 378 774 424 757 404 774 l 340 774 l 340 690 "},"™":{"ha":926,"x_min":0,"x_max":0,"o":"m 42 972 l 369 972 l 369 881 l 258 881 l 258 575 l 153 575 l 153 881 l 42 881 m 647 725 l 796 972 l 864 972 l 864 575 l 763 575 l 763 746 l 647 569 l 532 746 l 532 575 l 431 575 l 431 972 l 499 972 "},"°":{"ha":578,"x_min":0,"x_max":0,"o":"m 289 986 b 501 785 414 986 501 897 b 289 583 501 672 414 583 b 76 785 164 583 76 672 b 289 986 76 897 164 986 m 289 896 b 181 785 219 896 181 842 b 289 674 181 728 219 674 b 397 785 358 674 397 728 b 289 896 397 842 358 896 "}}}
